<svg xmlns="http://www.w3.org/2000/svg" viewBox="0 0 160 160"><rect width="160" height="160" rx="36" fill="#F0F8F2"/><path d="M43 116c18-28 38-45 73-53" fill="none" stroke="#2F7D4A" stroke-width="7" stroke-linecap="round"/><path d="M61 101c-9-18-3-30 12-36 10 12 10 23 2 35" fill="#63A95B"/><path d="M91 80c6-18 19-23 32-18 1 16-7 26-24 30" fill="#4B9654"/><path d="M84 93c18-10 38-6 43 8-12 15-31 15-44 4-5-4-5-8 1-12z" fill="#6CA84F"/><path d="M91 96l27 6" stroke="#A4C86A" stroke-width="3" stroke-linecap="round"/></svg>